<?xml version="1.0" encoding="UTF-8" standalone="no"?>
<!-- Created with Inkscape (http://www.inkscape.org/) -->

<svg
   xmlns:dc="http://purl.org/dc/elements/1.1/"
   xmlns:cc="http://creativecommons.org/ns#"
   xmlns:rdf="http://www.w3.org/1999/02/22-rdf-syntax-ns#"
   xmlns:svg="http://www.w3.org/2000/svg"
   xmlns="http://www.w3.org/2000/svg"
   xmlns:sodipodi="http://sodipodi.sourceforge.net/DTD/sodipodi-0.dtd"
   xmlns:inkscape="http://www.inkscape.org/namespaces/inkscape"
   width="200.69748"
   height="52.730286"
   viewBox="0 0 200.69748 52.730285"
   id="svg2"
   version="1.1"
   inkscape:version="0.91 r13725"
   sodipodi:docname="logo.svg"
   inkscape:export-filename="/home/marty/vagrant-local/www/solucion/htdocs/wp-content/themes/sol/images/logo.png"
   inkscape:export-xdpi="90"
   inkscape:export-ydpi="90">
  <defs
     id="defs4" />
  <sodipodi:namedview
     id="base"
     pagecolor="#ffffff"
     bordercolor="#666666"
     borderopacity="1.0"
     inkscape:pageopacity="0.0"
     inkscape:pageshadow="2"
     inkscape:zoom="3.959798"
     inkscape:cx="98.307173"
     inkscape:cy="14.329274"
     inkscape:document-units="px"
     inkscape:current-layer="g4305"
     showgrid="false"
     fit-margin-top="2"
     fit-margin-left="2"
     fit-margin-bottom="2"
     fit-margin-right="2"
     inkscape:window-width="1615"
     inkscape:window-height="1026"
     inkscape:window-x="65"
     inkscape:window-y="24"
     inkscape:window-maximized="1"
     units="px" />
  <metadata
     id="metadata7">
    <rdf:RDF>
      <cc:Work
         rdf:about="">
        <dc:format>image/svg+xml</dc:format>
        <dc:type
           rdf:resource="http://purl.org/dc/dcmitype/StillImage" />
        <dc:title></dc:title>
      </cc:Work>
    </rdf:RDF>
  </metadata>
  <g
     inkscape:label="Layer 1"
     inkscape:groupmode="layer"
     id="layer1"
     transform="translate(-111.03616,-279.27761)">
    <g
       id="g4264">
      <g
         transform="matrix(0.64132418,0,0,0.64132418,88.741668,109.82103)"
         id="g4233" />
      <g
         id="g4354">
        <g
           style="font-style:normal;font-weight:normal;font-size:37.7593689px;line-height:125%;font-family:sans-serif;letter-spacing:0px;word-spacing:0px;fill:#d2d2d2;fill-opacity:1;stroke:#cc000f;stroke-width:1.13278103;stroke-linecap:butt;stroke-linejoin:miter;stroke-miterlimit:4;stroke-dasharray:none;stroke-opacity:0.94117647"
           id="text4136">
          <path
             id="path4417"
             style="font-style:normal;font-variant:normal;font-weight:bold;font-stretch:normal;font-size:37.7593689px;line-height:125%;font-family:Arial;-inkscape-font-specification:'Arial, Bold';text-align:start;writing-mode:lr-tb;text-anchor:start;fill:#d2d2d2;fill-opacity:1;stroke:#cc000f;stroke-width:1.13278103;stroke-miterlimit:4;stroke-dasharray:none;stroke-opacity:0.94117647"
             d="m 145.46839,300.77257 5.30991,-0.51624 q 0.47936,2.67339 1.9359,3.92712 1.47498,1.25373 3.964,1.25373 2.63652,0 3.964,-1.10623 1.34591,-1.12467 1.34591,-2.61809 0,-0.95873 -0.57155,-1.62247 -0.55312,-0.68217 -1.95434,-1.17998 -0.95874,-0.33187 -4.36962,-1.17998 -4.38805,-1.08779 -6.15802,-2.67339 -2.48902,-2.2309 -2.48902,-5.43897 0,-2.06497 1.16154,-3.85338 1.17998,-1.80684 3.37401,-2.74714 2.21246,-0.94029 5.32835,-0.94029 5.08866,0 7.65143,2.2309 2.58121,2.2309 2.71027,5.95521 l -5.45741,0.23968 q -0.35031,-2.0834 -1.51185,-2.98682 -1.14311,-0.92186 -3.44776,-0.92186 -2.37839,0 -3.72431,0.97717 -0.86655,0.62686 -0.86655,1.67778 0,0.95874 0.81124,1.64091 1.03248,0.86655 5.01492,1.80685 3.98243,0.94029 5.88146,1.95434 1.91747,0.99561 2.98682,2.74714 1.0878,1.7331 1.0878,4.29587 0,2.32308 -1.2906,4.35117 -1.29061,2.0281 -3.65057,3.0237 -2.35996,0.97718 -5.88146,0.97718 -5.12554,0 -7.87268,-2.35997 -2.74714,-2.37839 -3.28182,-6.91394 z" />
        </g>
        <g
           style="font-style:normal;font-weight:normal;font-size:40px;line-height:125%;font-family:sans-serif;letter-spacing:0px;word-spacing:0px;fill:#000000;fill-opacity:1;stroke:none;stroke-width:1px;stroke-linecap:butt;stroke-linejoin:miter;stroke-opacity:1"
           id="text4140"
           transform="translate(27.779195,-44.951788)">
          <path
             id="path4168"
             style="font-style:normal;font-variant:normal;font-weight:bold;font-stretch:normal;font-size:40px;line-height:125%;font-family:Arial;-inkscape-font-specification:'Arial, Bold';text-align:start;writing-mode:lr-tb;text-anchor:start"
             d="m 281.69363,354.86221 -5.48828,0 0,-10.58593 q 0,-3.35938 -0.35156,-4.33594 -0.35156,-0.9961 -1.15234,-1.54297 -0.78125,-0.54688 -1.89453,-0.54688 -1.42579,0 -2.5586,0.78125 -1.13281,0.78125 -1.5625,2.07032 -0.41015,1.28906 -0.41015,4.76562 l 0,9.39453 -5.48829,0 0,-20.74218 5.09766,0 0,3.04687 q 2.71484,-3.51562 6.83594,-3.51562 1.8164,0 3.32031,0.66406 1.50391,0.64453 2.26563,1.66015 0.78125,1.01563 1.07421,2.30469 0.3125,1.28906 0.3125,3.69141 l 0,12.89062 z m -44.58984,-10.66406 q 0,-2.73437 1.34766,-5.29297 1.34765,-2.55859 3.80859,-3.90625 2.48047,-1.34765 5.52734,-1.34765 4.70704,0 7.71485,3.0664 3.00781,3.04688 3.00781,7.71485 0,4.70703 -3.04687,7.8125 -3.02735,3.08593 -7.63672,3.08593 -2.85157,0 -5.44922,-1.28906 -2.57813,-1.28906 -3.92578,-3.76953 -1.34766,-2.5 -1.34766,-6.07422 z m 5.625,0.29297 q 0,3.08594 1.46484,4.72656 1.46485,1.64063 3.61329,1.64063 2.14843,0 3.59375,-1.64063 1.46484,-1.64062 1.46484,-4.76562 0,-3.04688 -1.46484,-4.6875 -1.44532,-1.64063 -3.59375,-1.64063 -2.14844,0 -3.61329,1.64063 -1.46484,1.64062 -1.46484,4.72656 z m -15.44922,-13.18359 0,-5.07813 5.48828,0 0,5.07813 -5.48828,0 z m 0,23.55468 0,-20.74218 5.48828,0 0,20.74218 -5.48828,0 z m -4.17969,-14.60937 -5.41015,0.97656 q -0.27344,-1.62109 -1.25,-2.44141 -0.95703,-0.82031 -2.5,-0.82031 -2.05078,0 -3.28125,1.42578 -1.21094,1.40625 -1.21094,4.72657 0,3.6914 1.23047,5.21484 1.25,1.52344 3.33984,1.52344 1.5625,0 2.5586,-0.87891 0.99609,-0.89844 1.40625,-3.06641 l 5.39062,0.91797 q -0.83984,3.71094 -3.22265,5.60547 -2.38282,1.89453 -6.38672,1.89453 -4.55078,0 -7.26563,-2.87109 -2.69531,-2.87109 -2.69531,-7.94922 0,-5.13672 2.71484,-7.98828 2.71485,-2.87109 7.34375,-2.87109 3.78907,0 6.01563,1.64062 2.24609,1.62109 3.22265,4.96094 z m -28.88671,14.60937 0,-3.10547 q -1.13282,1.66016 -2.98829,2.61719 -1.83593,0.95703 -3.88671,0.95703 -2.08985,0 -3.75,-0.91797 -1.66016,-0.91796 -2.40235,-2.57812 -0.74219,-1.66016 -0.74219,-4.58984 l 0,-13.125 5.48829,0 0,9.53125 q 0,4.375 0.29296,5.37109 0.3125,0.97656 1.11329,1.5625 0.80078,0.56641 2.03125,0.56641 1.40625,0 2.51953,-0.76172 1.11328,-0.78125 1.52343,-1.91407 0.41016,-1.15234 0.41016,-5.60546 l 0,-8.75 5.48828,0 0,20.74218 -5.09765,0 z m -24.7461,0 0,-28.63281 5.48828,0 0,28.63281 -5.48828,0 z m -25.72265,-10.66406 q 0,-2.73437 1.34765,-5.29297 1.34766,-2.55859 3.8086,-3.90625 2.48046,-1.34765 5.52734,-1.34765 4.70703,0 7.71484,3.0664 3.00782,3.04688 3.00782,7.71485 0,4.70703 -3.04688,7.8125 -3.02734,3.08593 -7.63672,3.08593 -2.85156,0 -5.44922,-1.28906 -2.57812,-1.28906 -3.92578,-3.76953 -1.34765,-2.5 -1.34765,-6.07422 z m 5.625,0.29297 q 0,3.08594 1.46484,4.72656 1.46484,1.64063 3.61328,1.64063 2.14844,0 3.59375,-1.64063 1.46484,-1.64062 1.46484,-4.76562 0,-3.04688 -1.46484,-4.6875 -1.44531,-1.64063 -3.59375,-1.64063 -2.14844,0 -3.61328,1.64063 -1.46484,1.64062 -1.46484,4.72656 z" />
        </g>
        <g
           transform="matrix(0.63547136,0,0,0.63547136,90.758473,111.76926)"
           id="g4305">
          <g
             style="font-style:normal;font-weight:normal;font-size:40px;line-height:125%;font-family:sans-serif;letter-spacing:0px;word-spacing:0px;fill:#000000;fill-opacity:1;stroke:none;stroke-width:1px;stroke-linecap:butt;stroke-linejoin:miter;stroke-opacity:1"
             id="text4144"
             transform="translate(25.75889,-80.812204)">
            <path
               d="m 59.939316,414.33051 2.010498,-0.17579 q 0.142822,1.2085 0.65918,1.98853 0.527343,0.76904 1.625976,1.25244 1.098633,0.47241 2.471924,0.47241 1.219482,0 2.15332,-0.36255 0.933838,-0.36254 1.384278,-0.98877 0.461425,-0.6372 0.461425,-1.38427 0,-0.75806 -0.439453,-1.31836 -0.439453,-0.57129 -1.450195,-0.95581 -0.648193,-0.25269 -2.867432,-0.78003 -2.219238,-0.53833 -3.109131,-1.01074 -1.153564,-0.60425 -1.724853,-1.49414 -0.560303,-0.90088 -0.560303,-2.0105 0,-1.21949 0.692139,-2.27417 0.692139,-1.06568 2.021484,-1.61499 1.329346,-0.54932 2.955322,-0.54932 1.790772,0 3.153077,0.58228 1.373291,0.57129 2.109375,1.69189 0.736084,1.12061 0.791015,2.53784 l -2.043457,0.15381 q -0.164795,-1.5271 -1.120605,-2.30713 -0.944824,-0.78003 -2.801514,-0.78003 -1.933594,0 -2.823486,0.71411 -0.878906,0.70313 -0.878906,1.70288 0,0.86792 0.62622,1.42823 0.615235,0.5603 3.208008,1.15356 2.60376,0.58228 3.570557,1.02173 1.40625,0.64819 2.076416,1.64795 0.670166,0.98877 0.670166,2.28516 0,1.2854 -0.736084,2.42797 -0.736084,1.1316 -2.120362,1.7688 -1.373291,0.62622 -3.098144,0.62622 -2.186279,0 -3.669434,-0.6372 -1.472168,-0.63721 -2.318115,-1.91162 -0.834961,-1.2854 -0.878906,-2.90039 z"
               style="font-style:normal;font-variant:normal;font-weight:normal;font-stretch:normal;font-size:22.5px;line-height:125%;font-family:Arial;-inkscape-font-specification:'Arial, Normal';text-align:start;writing-mode:lr-tb;text-anchor:start"
               id="path4192"
               inkscape:connector-curvature="0" />
            <path
               d="m 75.452011,405.67328 0,-2.27417 1.977539,0 0,2.27417 -1.977539,0 z m 0,13.83179 0,-11.66748 1.977539,0 0,11.66748 -1.977539,0 z"
               style="font-style:normal;font-variant:normal;font-weight:normal;font-stretch:normal;font-size:22.5px;line-height:125%;font-family:Arial;-inkscape-font-specification:'Arial, Normal';text-align:start;writing-mode:lr-tb;text-anchor:start"
               id="path4194"
               inkscape:connector-curvature="0" />
            <path
               d="m 80.45079,419.50507 0,-11.66748 1.768799,0 0,1.63696 q 0.549317,-0.85694 1.461182,-1.37329 0.911865,-0.52735 2.076416,-0.52735 1.296387,0 2.120361,0.53833 0.834961,0.53833 1.175537,1.50513 1.384278,-2.04346 3.603516,-2.04346 1.73584,0 2.669678,0.9668 0.933838,0.95581 0.933838,2.95532 l 0,8.00904 -1.966553,0 0,-7.34986 q 0,-1.18652 -0.197754,-1.70288 -0.186768,-0.52734 -0.692139,-0.84595 -0.505371,-0.3186 -1.186523,-0.3186 -1.230469,0 -2.043457,0.82398 -0.812988,0.81298 -0.812988,2.61474 l 0,6.77857 -1.97754,0 0,-7.58057 q 0,-1.31836 -0.483398,-1.97754 -0.483398,-0.65918 -1.582031,-0.65918 -0.834961,0 -1.549073,0.43945 -0.703125,0.43946 -1.021728,1.2854 -0.318604,0.84595 -0.318604,2.43897 l 0,6.05347 -1.977539,0 z"
               style="font-style:normal;font-variant:normal;font-weight:normal;font-stretch:normal;font-size:22.5px;line-height:125%;font-family:Arial;-inkscape-font-specification:'Arial, Normal';text-align:start;writing-mode:lr-tb;text-anchor:start"
               id="path4196"
               inkscape:connector-curvature="0" />
            <path
               d="m 99.215439,423.9765 0,-16.13891 1.801761,0 0,1.51611 q 0.6372,-0.88989 1.43921,-1.32935 0.802,-0.45044 1.94458,-0.45044 1.49414,0 2.63671,0.76905 1.14258,0.76904 1.72486,2.17529 0.58227,1.39526 0.58227,3.06519 0,1.79077 -0.64819,3.22998 -0.63721,1.42822 -1.86768,2.19726 -1.21948,0.75806 -2.5708,0.75806 -0.98877,0 -1.77978,-0.41748 -0.78003,-0.41748 -1.2854,-1.05469 l 0,5.67993 -1.977541,0 z m 1.790771,-10.23926 q 0,2.2522 0.91187,3.32886 0.91186,1.07666 2.20825,1.07666 1.31836,0 2.25219,-1.10962 0.94483,-1.1206 0.94483,-3.46069 0,-2.23023 -0.92285,-3.33985 -0.91187,-1.10961 -2.18628,-1.10961 -1.26343,0 -2.24121,1.18652 -0.9668,1.17554 -0.9668,3.42773 z"
               style="font-style:normal;font-variant:normal;font-weight:normal;font-stretch:normal;font-size:22.5px;line-height:125%;font-family:Arial;-inkscape-font-specification:'Arial, Normal';text-align:start;writing-mode:lr-tb;text-anchor:start"
               id="path4198"
               inkscape:connector-curvature="0" />
            <path
               d="m 111.69591,419.50507 0,-16.10596 1.97754,0 0,16.10596 -1.97754,0 z"
               style="font-style:normal;font-variant:normal;font-weight:normal;font-stretch:normal;font-size:22.5px;line-height:125%;font-family:Arial;-inkscape-font-specification:'Arial, Normal';text-align:start;writing-mode:lr-tb;text-anchor:start"
               id="path4200"
               inkscape:connector-curvature="0" />
            <path
               d="m 116.7606,405.67328 0,-2.27417 1.97754,0 0,2.27417 -1.97754,0 z m 0,13.83179 0,-11.66748 1.97754,0 0,11.66748 -1.97754,0 z"
               style="font-style:normal;font-variant:normal;font-weight:normal;font-stretch:normal;font-size:22.5px;line-height:125%;font-family:Arial;-inkscape-font-specification:'Arial, Normal';text-align:start;writing-mode:lr-tb;text-anchor:start"
               id="path4202"
               inkscape:connector-curvature="0" />
            <path
               d="m 122.2318,419.50507 0,-10.1294 -1.74683,0 0,-1.53808 1.74683,0 0,-1.24146 q 0,-1.17554 0.20874,-1.74683 0.28564,-0.76904 0.99975,-1.24145 0.7251,-0.4834 2.02149,-0.4834 0.83496,0 1.8457,0.19775 l -0.29663,1.72486 q -0.61524,-0.10987 -1.16455,-0.10987 -0.90088,0 -1.27442,0.38453 -0.37353,0.38452 -0.37353,1.43921 l 0,1.07666 2.27417,0 0,1.53808 -2.27417,0 0,10.1294 -1.96655,0 z"
               style="font-style:normal;font-variant:normal;font-weight:normal;font-stretch:normal;font-size:22.5px;line-height:125%;font-family:Arial;-inkscape-font-specification:'Arial, Normal';text-align:start;writing-mode:lr-tb;text-anchor:start"
               id="path4204"
               inkscape:connector-curvature="0" />
            <path
               d="m 127.91173,423.99847 -0.21973,-1.85669 q 0.64819,0.17579 1.13159,0.17579 0.65918,0 1.05469,-0.21973 0.39551,-0.21973 0.64819,-0.61524 0.18677,-0.29663 0.60425,-1.47216 0.0549,-0.1648 0.17578,-0.4834 l -4.42749,-11.68945 2.13135,0 2.42798,6.75659 q 0.47241,1.2854 0.84595,2.70263 0.34057,-1.3623 0.81298,-2.65869 l 2.4939,-6.80053 1.97754,0 -4.43848,11.86523 q -0.71411,1.92261 -1.10962,2.6477 -0.52734,0.97779 -1.20849,1.42823 -0.68115,0.46142 -1.62598,0.46142 -0.57129,0 -1.27441,-0.2417 z"
               style="font-style:normal;font-variant:normal;font-weight:normal;font-stretch:normal;font-size:22.5px;line-height:125%;font-family:Arial;-inkscape-font-specification:'Arial, Normal';text-align:start;writing-mode:lr-tb;text-anchor:start"
               id="path4206"
               inkscape:connector-curvature="0" />
            <path
               d="m 139.2606,405.67328 0,-2.27417 1.97754,0 0,2.27417 -1.97754,0 z m 0,13.83179 0,-11.66748 1.97754,0 0,11.66748 -1.97754,0 z"
               style="font-style:normal;font-variant:normal;font-weight:normal;font-stretch:normal;font-size:22.5px;line-height:125%;font-family:Arial;-inkscape-font-specification:'Arial, Normal';text-align:start;writing-mode:lr-tb;text-anchor:start"
               id="path4208"
               inkscape:connector-curvature="0" />
            <path
               d="m 144.25938,419.50507 0,-11.66748 1.77979,0 0,1.65893 q 1.2854,-1.92261 3.71338,-1.92261 1.05469,0 1.93359,0.38453 0.88989,0.37353 1.32935,0.98876 0.43945,0.61524 0.61523,1.46119 0.10987,0.54931 0.10987,1.9226 l 0,7.17408 -1.97754,0 0,-7.09717 q 0,-1.2085 -0.23072,-1.80176 -0.23071,-0.60425 -0.82397,-0.95581 -0.58228,-0.36255 -1.37329,-0.36255 -1.26343,0 -2.18628,0.802 -0.91187,0.802 -0.91187,3.04322 l 0,6.37207 -1.97754,0 z"
               style="font-style:normal;font-variant:normal;font-weight:normal;font-stretch:normal;font-size:22.5px;line-height:125%;font-family:Arial;-inkscape-font-specification:'Arial, Normal';text-align:start;writing-mode:lr-tb;text-anchor:start"
               id="path4210"
               inkscape:connector-curvature="0" />
            <path
               d="m 156.42125,420.47186 1.92261,0.28565 q 0.12085,0.88989 0.67016,1.29638 0.73609,0.54932 2.0105,0.54932 1.37329,0 2.12036,-0.54932 0.74707,-0.54931 1.01074,-1.53808 0.15381,-0.60425 0.14283,-2.53784 -1.29639,1.5271 -3.22998,1.5271 -2.40601,0 -3.72437,-1.73584 -1.31836,-1.73584 -1.31836,-4.16382 0,-1.66992 0.60425,-3.07617 0.60425,-1.41724 1.74683,-2.18628 1.15356,-0.76905 2.70263,-0.76905 2.06543,0 3.40576,1.66993 l 0,-1.40625 1.82373,0 0,10.08544 q 0,2.72461 -0.5603,3.85621 -0.54931,1.14257 -1.75781,1.80175 -1.19751,0.65918 -2.95532,0.65918 -2.08741,0 -3.37281,-0.94482 -1.2854,-0.93384 -1.24145,-2.82349 z m 1.63696,-7.00927 q 0,2.29614 0.91187,3.35083 0.91186,1.05468 2.28515,1.05468 1.36231,0 2.28516,-1.0437 0.92285,-1.05469 0.92285,-3.2959 0,-2.14233 -0.95581,-3.22998 -0.94482,-1.08764 -2.28516,-1.08764 -1.31835,0 -2.24121,1.07666 -0.92285,1.06567 -0.92285,3.17505 z"
               style="font-style:normal;font-variant:normal;font-weight:normal;font-stretch:normal;font-size:22.5px;line-height:125%;font-family:Arial;-inkscape-font-specification:'Arial, Normal';text-align:start;writing-mode:lr-tb;text-anchor:start"
               id="path4212"
               inkscape:connector-curvature="0" />
          </g>
          <g
             style="font-style:normal;font-weight:normal;font-size:40px;line-height:125%;font-family:sans-serif;letter-spacing:0px;word-spacing:0px;fill:#cc0000;fill-opacity:1;stroke:none;stroke-width:1px;stroke-linecap:butt;stroke-linejoin:miter;stroke-opacity:1"
             id="text4148"
             transform="translate(144.12782,-127.53125)">
            <path
               id="path4189"
               style="font-style:normal;font-variant:normal;font-weight:normal;font-stretch:normal;font-size:22.5px;line-height:125%;font-family:Arial;-inkscape-font-specification:'Arial, Normal';text-align:start;writing-mode:lr-tb;text-anchor:start;fill:#cc0000;fill-opacity:1"
               d="m 187.63811,461.11621 2.0105,-0.17578 q 0.14283,1.2085 0.65918,1.98853 0.52735,0.76904 1.62598,1.25244 1.09863,0.47241 2.47192,0.47241 1.21949,0 2.15332,-0.36255 0.93384,-0.36255 1.38428,-0.98877 0.46143,-0.63721 0.46143,-1.38428 0,-0.75805 -0.43946,-1.31836 -0.43945,-0.57129 -1.45019,-0.95581 -0.6482,-0.25268 -2.86743,-0.78003 -2.21924,-0.53833 -3.10913,-1.01074 -1.15357,-0.60425 -1.72486,-1.49414 -0.5603,-0.90088 -0.5603,-2.0105 0,-1.21948 0.69214,-2.27417 0.69214,-1.06567 2.02148,-1.61499 1.32935,-0.54931 2.95532,-0.54931 1.79078,0 3.15308,0.58227 1.37329,0.57129 2.10938,1.6919 0.73608,1.1206 0.79101,2.53784 l -2.04346,0.15381 q -0.16479,-1.5271 -1.1206,-2.30713 -0.94483,-0.78003 -2.80151,-0.78003 -1.9336,0 -2.82349,0.71411 -0.87891,0.70312 -0.87891,1.70288 0,0.86792 0.62622,1.42822 0.61524,0.56031 3.20801,1.15357 2.60376,0.58227 3.57056,1.02173 1.40625,0.64819 2.07641,1.64795 0.67017,0.98876 0.67017,2.28515 0,1.2854 -0.73608,2.42798 -0.73609,1.13159 -2.12037,1.7688 -1.37329,0.62622 -3.09814,0.62622 -2.18628,0 -3.66943,-0.63721 -1.47217,-0.6372 -2.31812,-1.91162 -0.83496,-1.2854 -0.87891,-2.90039 z m -15.55664,5.17456 0,-16.10596 2.18628,0 8.45948,12.64527 0,-12.64527 2.04345,0 0,16.10596 -2.18628,0 -8.45947,-12.65625 0,12.65625 -2.04346,0 z m -18.11645,-7.84424 q 0,-4.01001 2.15332,-6.27319 2.15332,-2.27417 5.55908,-2.27417 2.23023,0 4.021,1.06567 1.79077,1.06568 2.72461,2.9773 0.94482,1.90063 0.94482,4.31763 0,2.44995 -0.98877,4.38354 -0.98877,1.93359 -2.80151,2.93335 -1.81275,0.98877 -3.91113,0.98877 -2.27417,0 -4.06495,-1.09863 -1.79077,-1.09864 -2.71362,-2.99927 -0.92285,-1.90064 -0.92285,-4.021 z m 2.19726,0.033 q 0,2.91138 1.56006,4.59229 1.57105,1.66992 3.93311,1.66992 2.406,0 3.95508,-1.6919 1.56006,-1.69189 1.56006,-4.80102 0,-1.96655 -0.67017,-3.42774 -0.65918,-1.47216 -1.94458,-2.27417 -1.27441,-0.81298 -2.86743,-0.81298 -2.26319,0 -3.90015,1.56006 -1.62598,1.54907 -1.62598,5.18554 z m -7.42675,7.81124 0,-16.10596 2.13134,0 0,16.10596 -2.13134,0 z m -10.01953,0 0,-14.20532 -5.3064,0 0,-1.90064 12.76611,0 0,1.90064 -5.32837,0 0,14.20532 -2.13134,0 z m -19.22608,0 6.1853,-16.10596 2.29615,0 6.59179,16.10596 -2.42797,0 -1.87867,-4.87793 -6.73462,0 -1.76879,4.87793 -2.26319,0 z m 4.64722,-6.61377 5.4602,0 -1.6809,-4.46045 q -0.76905,-2.03247 -1.14258,-3.33984 -0.30762,1.54907 -0.86792,3.07617 l -1.7688,4.72412 z m -19.10523,6.61377 0,-16.10596 7.14112,0 q 2.15332,0 3.27392,0.43946 1.12061,0.42846 1.79077,1.5271 0.67017,1.09863 0.67017,2.42798 0,1.71386 -1.10962,2.8894 -1.10962,1.17554 -3.42773,1.49414 0.84594,0.40649 1.2854,0.802 0.93384,0.85694 1.7688,2.14234 l 2.80151,4.38354 -2.68066,0 -2.13135,-3.35083 q -0.93384,-1.45019 -1.53809,-2.21924 -0.60425,-0.76904 -1.08764,-1.07666 -0.47242,-0.30761 -0.9668,-0.42846 -0.36255,-0.0769 -1.18652,-0.0769 l -2.47193,0 0,7.1521 -2.13135,0 z m 2.13135,-8.9978 4.5813,0 q 1.46118,0 2.28516,-0.29663 0.82397,-0.30762 1.25244,-0.9668 0.42846,-0.67017 0.42846,-1.45019 0,-1.14258 -0.83496,-1.87867 -0.82397,-0.73608 -2.61474,-0.73608 l -5.09766,0 0,5.32837 z m -17.149657,8.9978 0,-16.10596 11.645507,0 0,1.90064 -9.514159,0 0,4.93286 8.909909,0 0,1.88965 -8.909909,0 0,5.48218 9.887699,0 0,1.90063 -12.019047,0 z m -15.073242,0 0,-16.10596 6.075439,0 q 1.604004,0 2.449952,0.15381 1.186523,0.19776 1.988525,0.75806 0.802002,0.54932 1.2854,1.54907 0.494385,0.99976 0.494385,2.19727 0,2.05444 -1.307373,3.48266 -1.307373,1.41724 -4.724121,1.41724 l -4.130859,0 0,6.54785 -2.131348,0 z m 2.131348,-8.44848 4.163818,0 q 2.06543,0 2.93335,-0.76905 0.86792,-0.76904 0.86792,-2.1643 0,-1.01075 -0.516358,-1.72486 -0.505371,-0.7251 -1.340332,-0.95581 -0.53833,-0.14282 -1.988525,-0.14282 l -4.119873,0 0,5.75684 z m -20.269776,0.60424 q 0,-4.01001 2.153321,-6.27319 2.15332,-2.27417 5.559082,-2.27417 2.230224,0 4.020996,1.06567 1.790771,1.06568 2.724609,2.9773 0.944824,1.90063 0.944824,4.31763 0,2.44995 -0.988769,4.38354 -0.98877,1.93359 -2.801514,2.93335 -1.812744,0.98877 -3.911133,0.98877 -2.27417,0 -4.064941,-1.09863 -1.790772,-1.09864 -2.713623,-2.99927 -0.922852,-1.90064 -0.922852,-4.021 z m 2.197266,0.033 q 0,2.91138 1.560059,4.59229 1.571044,1.66992 3.933105,1.66992 2.406006,0 3.955078,-1.6919 1.560059,-1.69189 1.560059,-4.80102 0,-1.96655 -0.670166,-3.42774 -0.65918,-1.47216 -1.94458,-2.27417 -1.274414,-0.81298 -2.867432,-0.81298 -2.263184,0 -3.900147,1.56006 -1.625976,1.54907 -1.625976,5.18554 z" />
          </g>
        </g>
        <g
           id="g4258"
           transform="translate(1.326157,1.767767)">
          <g
             transform="matrix(0.94572203,0,0,1,-37.507371,121.78571)"
             id="text4214"
             style="font-style:normal;font-weight:normal;font-size:40px;line-height:125%;font-family:sans-serif;letter-spacing:0px;word-spacing:0px;fill:#d2d2d2;fill-opacity:1;stroke:none;stroke-width:1;stroke-linecap:butt;stroke-linejoin:miter;stroke-miterlimit:4;stroke-dasharray:none;stroke-opacity:1">
            <path
               id="path4230"
               style="fill:#d2d2d2;fill-opacity:1;stroke:none;stroke-width:1;stroke-miterlimit:4;stroke-dasharray:none;stroke-opacity:1"
               d="m 157.78146,170.51772 25.03907,0 0,3.28125 -25.03907,0 0,-3.28125 z m 0,7.96875 25.03907,0 0,3.32031 -25.03907,0 0,-3.32031 z" />
          </g>
          <g
             transform="matrix(0.91385444,0,0,0.91385444,-46.152642,145.50896)"
             id="text4222"
             style="font-style:normal;font-weight:normal;font-size:40px;line-height:125%;font-family:sans-serif;letter-spacing:0px;word-spacing:0px;fill:#000000;fill-opacity:1;stroke:none;stroke-width:1px;stroke-linecap:butt;stroke-linejoin:miter;stroke-opacity:1">
            <path
               id="path4227"
               style="font-style:normal;font-variant:normal;font-weight:normal;font-stretch:normal;font-size:40px;line-height:125%;font-family:'STIX Math';-inkscape-font-specification:'STIX Math, Normal';text-align:start;writing-mode:lr-tb;text-anchor:start;fill:#cc0000;fill-opacity:1;stroke:#000000;stroke-width:0.83105105;stroke-linecap:round;stroke-linejoin:miter;stroke-miterlimit:4;stroke-dasharray:none;stroke-opacity:1"
               d="m 173.98047,151.85205 c 1.39188,2.56723 3.5027,5.19029 6.16866,4.47595 2.8205,-0.75576 5.80882,-7.68531 9.51798,-8.67917 3.78643,-1.01458 7.28487,2.76888 8.51333,6.58082 l -0.33513,0.32076 -0.43761,-0.1137 c -1.35324,-2.57759 -3.69589,-5.13853 -6.40048,-4.41384 -2.78186,0.7454 -5.77019,7.67496 -9.47934,8.66882 -3.78643,1.01457 -7.20834,-3.41056 -8.32015,-6.63259 l 0.27363,-0.37145 z" />
          </g>
        </g>
      </g>
    </g>
  </g>
</svg>
